<mxfile host="app.diagrams.net" modified="2024-05-11T14:24:40.855Z" agent="Mozilla/5.0 (Windows NT 10.0; Win64; x64) AppleWebKit/537.36 (KHTML, like Gecko) Chrome/123.0.0.0 Safari/537.36 OPR/109.0.0.0" etag="MewBvNLiuRzo_j5DibdV" version="24.4.0" type="device">
  <diagram name="Page-1" id="30ob4WUU-74SDYCj_gj2">
    <mxGraphModel dx="1678" dy="992" grid="0" gridSize="10" guides="1" tooltips="1" connect="1" arrows="1" fold="1" page="0" pageScale="1" pageWidth="850" pageHeight="1100" math="0" shadow="0">
      <root>
        <mxCell id="0" />
        <mxCell id="1" parent="0" />
        <mxCell id="C9UdBl5IDosyjPMg6EX0-1" value="" style="shape=table;startSize=0;container=1;collapsible=0;childLayout=tableLayout;" vertex="1" parent="1">
          <mxGeometry x="149.92000000000002" y="40" width="540" height="40" as="geometry" />
        </mxCell>
        <mxCell id="C9UdBl5IDosyjPMg6EX0-2" value="" style="shape=tableRow;horizontal=0;startSize=0;swimlaneHead=0;swimlaneBody=0;strokeColor=inherit;top=0;left=0;bottom=0;right=0;collapsible=0;dropTarget=0;fillColor=none;points=[[0,0.5],[1,0.5]];portConstraint=eastwest;" vertex="1" parent="C9UdBl5IDosyjPMg6EX0-1">
          <mxGeometry width="540" height="40" as="geometry" />
        </mxCell>
        <mxCell id="C9UdBl5IDosyjPMg6EX0-3" value="&lt;div&gt;&lt;u&gt;Sales_Id&lt;/u&gt;&lt;br&gt;&lt;/div&gt;" style="shape=partialRectangle;html=1;whiteSpace=wrap;connectable=0;strokeColor=inherit;overflow=hidden;fillColor=none;top=0;left=0;bottom=0;right=0;pointerEvents=1;" vertex="1" parent="C9UdBl5IDosyjPMg6EX0-2">
          <mxGeometry width="60" height="40" as="geometry">
            <mxRectangle width="60" height="40" as="alternateBounds" />
          </mxGeometry>
        </mxCell>
        <mxCell id="C9UdBl5IDosyjPMg6EX0-4" value="Most_Order_Item" style="shape=partialRectangle;html=1;whiteSpace=wrap;connectable=0;strokeColor=inherit;overflow=hidden;fillColor=none;top=0;left=0;bottom=0;right=0;pointerEvents=1;" vertex="1" parent="C9UdBl5IDosyjPMg6EX0-2">
          <mxGeometry x="60" width="100" height="40" as="geometry">
            <mxRectangle width="100" height="40" as="alternateBounds" />
          </mxGeometry>
        </mxCell>
        <mxCell id="C9UdBl5IDosyjPMg6EX0-5" value="Least_Order_Item" style="shape=partialRectangle;html=1;whiteSpace=wrap;connectable=0;strokeColor=inherit;overflow=hidden;fillColor=none;top=0;left=0;bottom=0;right=0;pointerEvents=1;" vertex="1" parent="C9UdBl5IDosyjPMg6EX0-2">
          <mxGeometry x="160" width="120" height="40" as="geometry">
            <mxRectangle width="120" height="40" as="alternateBounds" />
          </mxGeometry>
        </mxCell>
        <mxCell id="C9UdBl5IDosyjPMg6EX0-6" value="Total_Orders" style="shape=partialRectangle;html=1;whiteSpace=wrap;connectable=0;strokeColor=inherit;overflow=hidden;fillColor=none;top=0;left=0;bottom=0;right=0;pointerEvents=1;" vertex="1" parent="C9UdBl5IDosyjPMg6EX0-2">
          <mxGeometry x="280" width="100" height="40" as="geometry">
            <mxRectangle width="100" height="40" as="alternateBounds" />
          </mxGeometry>
        </mxCell>
        <mxCell id="C9UdBl5IDosyjPMg6EX0-7" value="Period" style="shape=partialRectangle;html=1;whiteSpace=wrap;connectable=0;strokeColor=inherit;overflow=hidden;fillColor=none;top=0;left=0;bottom=0;right=0;pointerEvents=1;" vertex="1" parent="C9UdBl5IDosyjPMg6EX0-2">
          <mxGeometry x="380" width="80" height="40" as="geometry">
            <mxRectangle width="80" height="40" as="alternateBounds" />
          </mxGeometry>
        </mxCell>
        <mxCell id="C9UdBl5IDosyjPMg6EX0-8" value="M_ID" style="shape=partialRectangle;html=1;whiteSpace=wrap;connectable=0;strokeColor=inherit;overflow=hidden;fillColor=none;top=0;left=0;bottom=0;right=0;pointerEvents=1;" vertex="1" parent="C9UdBl5IDosyjPMg6EX0-2">
          <mxGeometry x="460" width="80" height="40" as="geometry">
            <mxRectangle width="80" height="40" as="alternateBounds" />
          </mxGeometry>
        </mxCell>
        <mxCell id="C9UdBl5IDosyjPMg6EX0-9" value="&lt;span style=&quot;text-wrap: wrap;&quot;&gt;Sales_Report&lt;/span&gt;" style="text;html=1;align=center;verticalAlign=middle;resizable=0;points=[];autosize=1;strokeColor=none;fillColor=none;" vertex="1" parent="1">
          <mxGeometry x="149.92000000000002" y="10" width="100" height="30" as="geometry" />
        </mxCell>
        <mxCell id="C9UdBl5IDosyjPMg6EX0-10" value="" style="shape=table;startSize=0;container=1;collapsible=0;childLayout=tableLayout;" vertex="1" parent="1">
          <mxGeometry x="149.92000000000002" y="160" width="220" height="40" as="geometry" />
        </mxCell>
        <mxCell id="C9UdBl5IDosyjPMg6EX0-11" value="" style="shape=tableRow;horizontal=0;startSize=0;swimlaneHead=0;swimlaneBody=0;strokeColor=inherit;top=0;left=0;bottom=0;right=0;collapsible=0;dropTarget=0;fillColor=none;points=[[0,0.5],[1,0.5]];portConstraint=eastwest;" vertex="1" parent="C9UdBl5IDosyjPMg6EX0-10">
          <mxGeometry width="220" height="40" as="geometry" />
        </mxCell>
        <mxCell id="C9UdBl5IDosyjPMg6EX0-12" value="&lt;u&gt;Item_Id&lt;/u&gt;" style="shape=partialRectangle;html=1;whiteSpace=wrap;connectable=0;strokeColor=inherit;overflow=hidden;fillColor=none;top=0;left=0;bottom=0;right=0;pointerEvents=1;" vertex="1" parent="C9UdBl5IDosyjPMg6EX0-11">
          <mxGeometry width="60" height="40" as="geometry">
            <mxRectangle width="60" height="40" as="alternateBounds" />
          </mxGeometry>
        </mxCell>
        <mxCell id="C9UdBl5IDosyjPMg6EX0-13" value="Name_of_Food" style="shape=partialRectangle;html=1;whiteSpace=wrap;connectable=0;strokeColor=inherit;overflow=hidden;fillColor=none;top=0;left=0;bottom=0;right=0;pointerEvents=1;" vertex="1" parent="C9UdBl5IDosyjPMg6EX0-11">
          <mxGeometry x="60" width="110" height="40" as="geometry">
            <mxRectangle width="110" height="40" as="alternateBounds" />
          </mxGeometry>
        </mxCell>
        <mxCell id="C9UdBl5IDosyjPMg6EX0-14" value="Price" style="shape=partialRectangle;html=1;whiteSpace=wrap;connectable=0;strokeColor=inherit;overflow=hidden;fillColor=none;top=0;left=0;bottom=0;right=0;pointerEvents=1;" vertex="1" parent="C9UdBl5IDosyjPMg6EX0-11">
          <mxGeometry x="170" width="50" height="40" as="geometry">
            <mxRectangle width="50" height="40" as="alternateBounds" />
          </mxGeometry>
        </mxCell>
        <mxCell id="C9UdBl5IDosyjPMg6EX0-16" value="Menu" style="text;html=1;align=center;verticalAlign=middle;resizable=0;points=[];autosize=1;strokeColor=none;fillColor=none;" vertex="1" parent="1">
          <mxGeometry x="149.92000000000002" y="130" width="50" height="30" as="geometry" />
        </mxCell>
        <mxCell id="C9UdBl5IDosyjPMg6EX0-17" value="" style="shape=table;startSize=0;container=1;collapsible=0;childLayout=tableLayout;" vertex="1" parent="1">
          <mxGeometry x="149.92000000000002" y="280" width="630" height="40" as="geometry" />
        </mxCell>
        <mxCell id="C9UdBl5IDosyjPMg6EX0-18" value="" style="shape=tableRow;horizontal=0;startSize=0;swimlaneHead=0;swimlaneBody=0;strokeColor=inherit;top=0;left=0;bottom=0;right=0;collapsible=0;dropTarget=0;fillColor=none;points=[[0,0.5],[1,0.5]];portConstraint=eastwest;" vertex="1" parent="C9UdBl5IDosyjPMg6EX0-17">
          <mxGeometry width="630" height="40" as="geometry" />
        </mxCell>
        <mxCell id="C9UdBl5IDosyjPMg6EX0-19" value="&lt;u&gt;Order_Id&lt;/u&gt;" style="shape=partialRectangle;html=1;whiteSpace=wrap;connectable=0;strokeColor=inherit;overflow=hidden;fillColor=none;top=0;left=0;bottom=0;right=0;pointerEvents=1;" vertex="1" parent="C9UdBl5IDosyjPMg6EX0-18">
          <mxGeometry width="60" height="40" as="geometry">
            <mxRectangle width="60" height="40" as="alternateBounds" />
          </mxGeometry>
        </mxCell>
        <mxCell id="C9UdBl5IDosyjPMg6EX0-20" value="Time" style="shape=partialRectangle;html=1;whiteSpace=wrap;connectable=0;strokeColor=inherit;overflow=hidden;fillColor=none;top=0;left=0;bottom=0;right=0;pointerEvents=1;" vertex="1" parent="C9UdBl5IDosyjPMg6EX0-18">
          <mxGeometry x="60" width="60" height="40" as="geometry">
            <mxRectangle width="60" height="40" as="alternateBounds" />
          </mxGeometry>
        </mxCell>
        <mxCell id="C9UdBl5IDosyjPMg6EX0-21" value="Order_Date" style="shape=partialRectangle;html=1;whiteSpace=wrap;connectable=0;strokeColor=inherit;overflow=hidden;fillColor=none;top=0;left=0;bottom=0;right=0;pointerEvents=1;" vertex="1" parent="C9UdBl5IDosyjPMg6EX0-18">
          <mxGeometry x="120" width="80" height="40" as="geometry">
            <mxRectangle width="80" height="40" as="alternateBounds" />
          </mxGeometry>
        </mxCell>
        <mxCell id="C9UdBl5IDosyjPMg6EX0-22" value="Calculate_Point" style="shape=partialRectangle;html=1;whiteSpace=wrap;connectable=0;strokeColor=inherit;overflow=hidden;fillColor=none;top=0;left=0;bottom=0;right=0;pointerEvents=1;" vertex="1" parent="C9UdBl5IDosyjPMg6EX0-18">
          <mxGeometry x="200" width="100" height="40" as="geometry">
            <mxRectangle width="100" height="40" as="alternateBounds" />
          </mxGeometry>
        </mxCell>
        <mxCell id="C9UdBl5IDosyjPMg6EX0-23" value="Toatal_point" style="shape=partialRectangle;html=1;whiteSpace=wrap;connectable=0;strokeColor=inherit;overflow=hidden;fillColor=none;top=0;left=0;bottom=0;right=0;pointerEvents=1;" vertex="1" parent="C9UdBl5IDosyjPMg6EX0-18">
          <mxGeometry x="300" width="110" height="40" as="geometry">
            <mxRectangle width="110" height="40" as="alternateBounds" />
          </mxGeometry>
        </mxCell>
        <mxCell id="C9UdBl5IDosyjPMg6EX0-24" value="E_ID" style="shape=partialRectangle;html=1;whiteSpace=wrap;connectable=0;strokeColor=inherit;overflow=hidden;fillColor=none;top=0;left=0;bottom=0;right=0;pointerEvents=1;" vertex="1" parent="C9UdBl5IDosyjPMg6EX0-18">
          <mxGeometry x="410" width="110" height="40" as="geometry">
            <mxRectangle width="110" height="40" as="alternateBounds" />
          </mxGeometry>
        </mxCell>
        <mxCell id="C9UdBl5IDosyjPMg6EX0-25" value="C-phoneNO" style="shape=partialRectangle;html=1;whiteSpace=wrap;connectable=0;strokeColor=inherit;overflow=hidden;fillColor=none;top=0;left=0;bottom=0;right=0;pointerEvents=1;" vertex="1" parent="C9UdBl5IDosyjPMg6EX0-18">
          <mxGeometry x="520" width="110" height="40" as="geometry">
            <mxRectangle width="110" height="40" as="alternateBounds" />
          </mxGeometry>
        </mxCell>
        <mxCell id="C9UdBl5IDosyjPMg6EX0-26" value="&lt;span style=&quot;text-wrap: wrap;&quot;&gt;Invoice&lt;/span&gt;" style="text;html=1;align=center;verticalAlign=middle;resizable=0;points=[];autosize=1;strokeColor=none;fillColor=none;" vertex="1" parent="1">
          <mxGeometry x="149.92000000000002" y="250" width="60" height="30" as="geometry" />
        </mxCell>
        <mxCell id="C9UdBl5IDosyjPMg6EX0-32" value="" style="shape=table;startSize=0;container=1;collapsible=0;childLayout=tableLayout;" vertex="1" parent="1">
          <mxGeometry x="145.00000000000003" y="393" width="340" height="40" as="geometry" />
        </mxCell>
        <mxCell id="C9UdBl5IDosyjPMg6EX0-33" value="" style="shape=tableRow;horizontal=0;startSize=0;swimlaneHead=0;swimlaneBody=0;strokeColor=inherit;top=0;left=0;bottom=0;right=0;collapsible=0;dropTarget=0;fillColor=none;points=[[0,0.5],[1,0.5]];portConstraint=eastwest;" vertex="1" parent="C9UdBl5IDosyjPMg6EX0-32">
          <mxGeometry width="340" height="40" as="geometry" />
        </mxCell>
        <mxCell id="C9UdBl5IDosyjPMg6EX0-34" value="&lt;u&gt;C_PhoneNo&lt;/u&gt;" style="shape=partialRectangle;html=1;whiteSpace=wrap;connectable=0;strokeColor=inherit;overflow=hidden;fillColor=none;top=0;left=0;bottom=0;right=0;pointerEvents=1;" vertex="1" parent="C9UdBl5IDosyjPMg6EX0-33">
          <mxGeometry width="80" height="40" as="geometry">
            <mxRectangle width="80" height="40" as="alternateBounds" />
          </mxGeometry>
        </mxCell>
        <mxCell id="C9UdBl5IDosyjPMg6EX0-35" value="C_Fname" style="shape=partialRectangle;html=1;whiteSpace=wrap;connectable=0;strokeColor=inherit;overflow=hidden;fillColor=none;top=0;left=0;bottom=0;right=0;pointerEvents=1;" vertex="1" parent="C9UdBl5IDosyjPMg6EX0-33">
          <mxGeometry x="80" width="70" height="40" as="geometry">
            <mxRectangle width="70" height="40" as="alternateBounds" />
          </mxGeometry>
        </mxCell>
        <mxCell id="C9UdBl5IDosyjPMg6EX0-36" value="C_Lname" style="shape=partialRectangle;html=1;whiteSpace=wrap;connectable=0;strokeColor=inherit;overflow=hidden;fillColor=none;top=0;left=0;bottom=0;right=0;pointerEvents=1;" vertex="1" parent="C9UdBl5IDosyjPMg6EX0-33">
          <mxGeometry x="150" width="60" height="40" as="geometry">
            <mxRectangle width="60" height="40" as="alternateBounds" />
          </mxGeometry>
        </mxCell>
        <mxCell id="C9UdBl5IDosyjPMg6EX0-37" value="Total_Point" style="shape=partialRectangle;html=1;whiteSpace=wrap;connectable=0;strokeColor=inherit;overflow=hidden;fillColor=none;top=0;left=0;bottom=0;right=0;pointerEvents=1;" vertex="1" parent="C9UdBl5IDosyjPMg6EX0-33">
          <mxGeometry x="210" width="70" height="40" as="geometry">
            <mxRectangle width="70" height="40" as="alternateBounds" />
          </mxGeometry>
        </mxCell>
        <mxCell id="C9UdBl5IDosyjPMg6EX0-38" value="Gender" style="shape=partialRectangle;html=1;whiteSpace=wrap;connectable=0;strokeColor=inherit;overflow=hidden;fillColor=none;top=0;left=0;bottom=0;right=0;pointerEvents=1;" vertex="1" parent="C9UdBl5IDosyjPMg6EX0-33">
          <mxGeometry x="280" width="60" height="40" as="geometry">
            <mxRectangle width="60" height="40" as="alternateBounds" />
          </mxGeometry>
        </mxCell>
        <mxCell id="C9UdBl5IDosyjPMg6EX0-39" value="&lt;span style=&quot;text-wrap: wrap;&quot;&gt;Customer&lt;/span&gt;" style="text;html=1;align=center;verticalAlign=middle;resizable=0;points=[];autosize=1;strokeColor=none;fillColor=none;" vertex="1" parent="1">
          <mxGeometry x="134.92000000000002" y="351" width="80" height="30" as="geometry" />
        </mxCell>
        <mxCell id="C9UdBl5IDosyjPMg6EX0-47" value="&lt;span style=&quot;text-wrap: wrap;&quot;&gt;Emploees&lt;/span&gt;" style="text;html=1;align=center;verticalAlign=middle;resizable=0;points=[];autosize=1;strokeColor=none;fillColor=none;" vertex="1" parent="1">
          <mxGeometry x="139.92000000000002" y="590" width="80" height="30" as="geometry" />
        </mxCell>
        <mxCell id="C9UdBl5IDosyjPMg6EX0-48" value="" style="endArrow=classic;html=1;rounded=0;exitX=0.735;exitY=1.073;exitDx=0;exitDy=0;exitPerimeter=0;entryX=0.116;entryY=1.025;entryDx=0;entryDy=0;entryPerimeter=0;fillColor=#dae8fc;strokeColor=#6c8ebf;" edge="1" parent="1" source="C9UdBl5IDosyjPMg6EX0-18" target="C9UdBl5IDosyjPMg6EX0-41">
          <mxGeometry width="50" height="50" relative="1" as="geometry">
            <mxPoint x="369.92" y="340" as="sourcePoint" />
            <mxPoint x="609.92" y="650" as="targetPoint" />
            <Array as="points">
              <mxPoint x="609.92" y="710" />
              <mxPoint x="186.92000000000002" y="710" />
            </Array>
          </mxGeometry>
        </mxCell>
        <mxCell id="C9UdBl5IDosyjPMg6EX0-50" style="edgeStyle=orthogonalEdgeStyle;rounded=0;orthogonalLoop=1;jettySize=auto;html=1;exitX=1;exitY=0.5;exitDx=0;exitDy=0;entryX=0.088;entryY=1.067;entryDx=0;entryDy=0;entryPerimeter=0;fillColor=#ffe6cc;strokeColor=#d79b00;" edge="1" parent="1" source="C9UdBl5IDosyjPMg6EX0-2" target="C9UdBl5IDosyjPMg6EX0-41">
          <mxGeometry relative="1" as="geometry">
            <mxPoint x="694.9199999999998" y="60.00000000000006" as="sourcePoint" />
            <mxPoint x="169.96000000000004" y="680" as="targetPoint" />
            <Array as="points">
              <mxPoint x="790" y="60" />
              <mxPoint x="790" y="720" />
              <mxPoint x="170" y="720" />
              <mxPoint x="170" y="671" />
              <mxPoint x="177" y="671" />
            </Array>
          </mxGeometry>
        </mxCell>
        <mxCell id="C9UdBl5IDosyjPMg6EX0-51" value="" style="shape=table;startSize=0;container=1;collapsible=0;childLayout=tableLayout;" vertex="1" parent="1">
          <mxGeometry x="149.92000000000002" y="870" width="140.0000000000001" height="40" as="geometry" />
        </mxCell>
        <mxCell id="C9UdBl5IDosyjPMg6EX0-52" value="" style="shape=tableRow;horizontal=0;startSize=0;swimlaneHead=0;swimlaneBody=0;strokeColor=inherit;top=0;left=0;bottom=0;right=0;collapsible=0;dropTarget=0;fillColor=none;points=[[0,0.5],[1,0.5]];portConstraint=eastwest;" vertex="1" parent="C9UdBl5IDosyjPMg6EX0-51">
          <mxGeometry width="140.0000000000001" height="40" as="geometry" />
        </mxCell>
        <mxCell id="C9UdBl5IDosyjPMg6EX0-53" value="&lt;u&gt;Invoice_Id&lt;/u&gt;" style="shape=partialRectangle;html=1;whiteSpace=wrap;connectable=0;strokeColor=inherit;overflow=hidden;fillColor=none;top=0;left=0;bottom=0;right=0;pointerEvents=1;" vertex="1" parent="C9UdBl5IDosyjPMg6EX0-52">
          <mxGeometry width="70" height="40" as="geometry">
            <mxRectangle width="70" height="40" as="alternateBounds" />
          </mxGeometry>
        </mxCell>
        <mxCell id="C9UdBl5IDosyjPMg6EX0-54" value="&lt;u&gt;Item_Id&lt;/u&gt;" style="shape=partialRectangle;html=1;whiteSpace=wrap;connectable=0;strokeColor=inherit;overflow=hidden;fillColor=none;top=0;left=0;bottom=0;right=0;pointerEvents=1;" vertex="1" parent="C9UdBl5IDosyjPMg6EX0-52">
          <mxGeometry x="70" width="70" height="40" as="geometry">
            <mxRectangle width="70" height="40" as="alternateBounds" />
          </mxGeometry>
        </mxCell>
        <mxCell id="C9UdBl5IDosyjPMg6EX0-55" value="&lt;span style=&quot;text-wrap: wrap;&quot;&gt;Take&lt;/span&gt;" style="text;html=1;align=center;verticalAlign=middle;resizable=0;points=[];autosize=1;strokeColor=none;fillColor=none;" vertex="1" parent="1">
          <mxGeometry x="154.92000000000002" y="830" width="50" height="30" as="geometry" />
        </mxCell>
        <mxCell id="C9UdBl5IDosyjPMg6EX0-57" style="edgeStyle=orthogonalEdgeStyle;rounded=0;orthogonalLoop=1;jettySize=auto;html=1;exitX=0;exitY=0.5;exitDx=0;exitDy=0;entryX=-0.001;entryY=0.179;entryDx=0;entryDy=0;entryPerimeter=0;fillColor=#e1d5e7;strokeColor=#9673a6;" edge="1" parent="1" source="C9UdBl5IDosyjPMg6EX0-52" target="C9UdBl5IDosyjPMg6EX0-18">
          <mxGeometry relative="1" as="geometry">
            <Array as="points">
              <mxPoint x="150" y="890" />
              <mxPoint x="100" y="890" />
              <mxPoint x="100" y="287" />
            </Array>
          </mxGeometry>
        </mxCell>
        <mxCell id="C9UdBl5IDosyjPMg6EX0-58" style="edgeStyle=orthogonalEdgeStyle;rounded=0;orthogonalLoop=1;jettySize=auto;html=1;exitX=1;exitY=0.5;exitDx=0;exitDy=0;fillColor=#d5e8d4;strokeColor=#82b366;" edge="1" parent="1" source="C9UdBl5IDosyjPMg6EX0-66" target="C9UdBl5IDosyjPMg6EX0-11">
          <mxGeometry relative="1" as="geometry">
            <Array as="points">
              <mxPoint x="390" y="890" />
              <mxPoint x="390" y="930" />
              <mxPoint x="80" y="930" />
              <mxPoint x="80" y="180" />
            </Array>
            <mxPoint x="450" y="960" as="sourcePoint" />
          </mxGeometry>
        </mxCell>
        <mxCell id="C9UdBl5IDosyjPMg6EX0-59" value="" style="shape=table;startSize=0;container=1;collapsible=0;childLayout=tableLayout;" vertex="1" parent="1">
          <mxGeometry x="149.92" y="770" width="220" height="40" as="geometry" />
        </mxCell>
        <mxCell id="C9UdBl5IDosyjPMg6EX0-60" value="" style="shape=tableRow;horizontal=0;startSize=0;swimlaneHead=0;swimlaneBody=0;strokeColor=inherit;top=0;left=0;bottom=0;right=0;collapsible=0;dropTarget=0;fillColor=none;points=[[0,0.5],[1,0.5]];portConstraint=eastwest;" vertex="1" parent="C9UdBl5IDosyjPMg6EX0-59">
          <mxGeometry width="220" height="40" as="geometry" />
        </mxCell>
        <mxCell id="C9UdBl5IDosyjPMg6EX0-61" value="&lt;u&gt;User_Name&lt;/u&gt;" style="shape=partialRectangle;html=1;whiteSpace=wrap;connectable=0;strokeColor=inherit;overflow=hidden;fillColor=none;top=0;left=0;bottom=0;right=0;pointerEvents=1;" vertex="1" parent="C9UdBl5IDosyjPMg6EX0-60">
          <mxGeometry width="80" height="40" as="geometry">
            <mxRectangle width="80" height="40" as="alternateBounds" />
          </mxGeometry>
        </mxCell>
        <mxCell id="C9UdBl5IDosyjPMg6EX0-62" value="&lt;u&gt;E_ID&lt;/u&gt;" style="shape=partialRectangle;html=1;whiteSpace=wrap;connectable=0;strokeColor=inherit;overflow=hidden;fillColor=none;top=0;left=0;bottom=0;right=0;pointerEvents=1;" vertex="1" parent="C9UdBl5IDosyjPMg6EX0-60">
          <mxGeometry x="80" width="70" height="40" as="geometry">
            <mxRectangle width="70" height="40" as="alternateBounds" />
          </mxGeometry>
        </mxCell>
        <mxCell id="C9UdBl5IDosyjPMg6EX0-63" value="Password" style="shape=partialRectangle;html=1;whiteSpace=wrap;connectable=0;strokeColor=inherit;overflow=hidden;fillColor=none;top=0;left=0;bottom=0;right=0;pointerEvents=1;" vertex="1" parent="C9UdBl5IDosyjPMg6EX0-60">
          <mxGeometry x="150" width="70" height="40" as="geometry">
            <mxRectangle width="70" height="40" as="alternateBounds" />
          </mxGeometry>
        </mxCell>
        <mxCell id="C9UdBl5IDosyjPMg6EX0-64" value="&lt;span style=&quot;text-wrap: wrap;&quot;&gt;Account&lt;/span&gt;" style="text;html=1;align=center;verticalAlign=middle;resizable=0;points=[];autosize=1;strokeColor=none;fillColor=none;" vertex="1" parent="1">
          <mxGeometry x="149.92000000000002" y="740" width="70" height="30" as="geometry" />
        </mxCell>
        <mxCell id="C9UdBl5IDosyjPMg6EX0-65" value="" style="endArrow=classic;html=1;rounded=0;exitX=0.548;exitY=-0.008;exitDx=0;exitDy=0;exitPerimeter=0;entryX=0.02;entryY=0.992;entryDx=0;entryDy=0;entryPerimeter=0;fillColor=#dae8fc;strokeColor=#6c8ebf;" edge="1" parent="1" source="C9UdBl5IDosyjPMg6EX0-60" target="C9UdBl5IDosyjPMg6EX0-41">
          <mxGeometry width="50" height="50" relative="1" as="geometry">
            <mxPoint x="269.92" y="960" as="sourcePoint" />
            <mxPoint x="319.92" y="910" as="targetPoint" />
            <Array as="points">
              <mxPoint x="270" y="730" />
              <mxPoint x="155.92000000000002" y="730" />
            </Array>
          </mxGeometry>
        </mxCell>
        <mxCell id="C9UdBl5IDosyjPMg6EX0-66" value="Quantity" style="rounded=0;whiteSpace=wrap;html=1;" vertex="1" parent="1">
          <mxGeometry x="289.92" y="870" width="70.08" height="40" as="geometry" />
        </mxCell>
        <mxCell id="C9UdBl5IDosyjPMg6EX0-67" style="edgeStyle=none;rounded=0;orthogonalLoop=1;jettySize=auto;html=1;exitX=0.933;exitY=1.05;exitDx=0;exitDy=0;entryX=0.125;entryY=1.005;entryDx=0;entryDy=0;entryPerimeter=0;strokeColor=#b85450;align=center;verticalAlign=middle;fontFamily=Helvetica;fontSize=11;fontColor=default;labelBackgroundColor=default;endArrow=classic;exitPerimeter=0;fillColor=#f8cecc;" edge="1" parent="1" source="C9UdBl5IDosyjPMg6EX0-18" target="C9UdBl5IDosyjPMg6EX0-33">
          <mxGeometry relative="1" as="geometry">
            <Array as="points">
              <mxPoint x="740" y="590" />
              <mxPoint x="192" y="590" />
            </Array>
          </mxGeometry>
        </mxCell>
        <mxCell id="C9UdBl5IDosyjPMg6EX0-40" value="" style="shape=table;startSize=0;container=1;collapsible=0;childLayout=tableLayout;" vertex="1" parent="1">
          <mxGeometry x="149.00000000000003" y="619" width="320" height="40" as="geometry" />
        </mxCell>
        <mxCell id="C9UdBl5IDosyjPMg6EX0-41" value="" style="shape=tableRow;horizontal=0;startSize=0;swimlaneHead=0;swimlaneBody=0;strokeColor=inherit;top=0;left=0;bottom=0;right=0;collapsible=0;dropTarget=0;fillColor=none;points=[[0,0.5],[1,0.5]];portConstraint=eastwest;" vertex="1" parent="C9UdBl5IDosyjPMg6EX0-40">
          <mxGeometry width="320" height="40" as="geometry" />
        </mxCell>
        <mxCell id="C9UdBl5IDosyjPMg6EX0-42" value="&lt;u&gt;E_ID&lt;/u&gt;" style="shape=partialRectangle;html=1;whiteSpace=wrap;connectable=0;strokeColor=inherit;overflow=hidden;fillColor=none;top=0;left=0;bottom=0;right=0;pointerEvents=1;" vertex="1" parent="C9UdBl5IDosyjPMg6EX0-41">
          <mxGeometry width="60" height="40" as="geometry">
            <mxRectangle width="60" height="40" as="alternateBounds" />
          </mxGeometry>
        </mxCell>
        <mxCell id="C9UdBl5IDosyjPMg6EX0-43" value="Role" style="shape=partialRectangle;html=1;whiteSpace=wrap;connectable=0;strokeColor=inherit;overflow=hidden;fillColor=none;top=0;left=0;bottom=0;right=0;pointerEvents=1;" vertex="1" parent="C9UdBl5IDosyjPMg6EX0-41">
          <mxGeometry x="60" width="60" height="40" as="geometry">
            <mxRectangle width="60" height="40" as="alternateBounds" />
          </mxGeometry>
        </mxCell>
        <mxCell id="C9UdBl5IDosyjPMg6EX0-44" value="E_Salary" style="shape=partialRectangle;html=1;whiteSpace=wrap;connectable=0;strokeColor=inherit;overflow=hidden;fillColor=none;top=0;left=0;bottom=0;right=0;pointerEvents=1;" vertex="1" parent="C9UdBl5IDosyjPMg6EX0-41">
          <mxGeometry x="120" width="60" height="40" as="geometry">
            <mxRectangle width="60" height="40" as="alternateBounds" />
          </mxGeometry>
        </mxCell>
        <mxCell id="C9UdBl5IDosyjPMg6EX0-45" value="E_Fname" style="shape=partialRectangle;html=1;whiteSpace=wrap;connectable=0;strokeColor=inherit;overflow=hidden;fillColor=none;top=0;left=0;bottom=0;right=0;pointerEvents=1;" vertex="1" parent="C9UdBl5IDosyjPMg6EX0-41">
          <mxGeometry x="180" width="60" height="40" as="geometry">
            <mxRectangle width="60" height="40" as="alternateBounds" />
          </mxGeometry>
        </mxCell>
        <mxCell id="C9UdBl5IDosyjPMg6EX0-46" value="E_Lname" style="shape=partialRectangle;html=1;whiteSpace=wrap;connectable=0;strokeColor=inherit;overflow=hidden;fillColor=none;top=0;left=0;bottom=0;right=0;pointerEvents=1;" vertex="1" parent="C9UdBl5IDosyjPMg6EX0-41">
          <mxGeometry x="240" width="80" height="40" as="geometry">
            <mxRectangle width="80" height="40" as="alternateBounds" />
          </mxGeometry>
        </mxCell>
      </root>
    </mxGraphModel>
  </diagram>
</mxfile>
